<?xml version="1.0" standalone="no"?>
<!DOCTYPE svg PUBLIC "-//W3C//DTD SVG 20010904//EN"
 "http://www.w3.org/TR/2001/REC-SVG-20010904/DTD/svg10.dtd">
<svg version="1.0" xmlns="http://www.w3.org/2000/svg"
 width="300.000000pt" height="115.000000pt" viewBox="0 0 300.000000 115.000000"
 preserveAspectRatio="xMidYMid meet">
<metadata>
Created by potrace 1.10, written by Peter Selinger 2001-2011
</metadata>
<g transform="translate(0.000000,115.000000) scale(0.100000,-0.100000)"
fill="#000000" stroke="none">
<path d="M1487 926 c-10 -14 -26 -26 -37 -26 -28 0 -32 -15 -10 -35 13 -12 18
-25 14 -40 -5 -20 -2 -21 45 -21 48 1 51 2 51 27 0 15 7 32 15 39 18 15 11 30
-15 30 -11 0 -25 12 -33 26 l-14 26 -16 -26z"/>
<path d="M1321 870 c-19 -16 -21 -23 -11 -35 6 -8 9 -18 6 -24 -3 -5 9 -9 29
-8 25 1 35 6 35 17 0 9 5 21 11 27 8 8 5 13 -10 18 -12 3 -21 11 -21 16 0 14
-13 10 -39 -11z"/>
<path d="M1670 881 c0 -5 -9 -13 -21 -16 -15 -5 -18 -10 -10 -18 6 -6 11 -18
11 -27 0 -12 9 -17 28 -17 22 0 31 7 39 27 8 22 6 28 -13 43 -26 19 -34 21
-34 8z"/>
<path d="M805 740 c-16 -26 14 -30 206 -30 192 0 199 1 199 20 0 19 -7 20
-199 20 -123 0 -202 -4 -206 -10z"/>
<path d="M1800 730 c0 -19 7 -20 200 -20 193 0 200 1 200 20 0 19 -7 20 -200
20 -193 0 -200 -1 -200 -20z"/>
<path d="M1290 730 c0 -5 7 -10 15 -10 8 0 15 -4 15 -9 0 -5 -7 -14 -15 -21
-8 -7 -15 -21 -15 -31 0 -14 7 -19 30 -19 17 0 30 5 30 10 0 6 -10 10 -22 10
l-22 0 22 20 c25 24 27 31 10 48 -15 15 -48 16 -48 2z"/>
<path d="M1418 715 c-15 -33 3 -75 32 -75 12 0 25 10 32 25 15 33 -3 75 -32
75 -12 0 -25 -10 -32 -25z m42 -25 c0 -16 -4 -30 -10 -30 -5 0 -10 14 -10 30
0 17 5 30 10 30 6 0 10 -13 10 -30z"/>
<path d="M1550 732 c0 -5 10 -13 23 -16 l22 -7 -22 -16 c-34 -23 -30 -53 7
-53 17 0 30 5 30 10 0 6 -7 10 -15 10 -20 0 -19 16 1 24 27 10 13 51 -18 54
-16 2 -28 -1 -28 -6z"/>
<path d="M1685 727 c-12 -10 -14 -16 -7 -21 7 -4 12 -20 12 -37 0 -19 5 -29
15 -29 11 0 15 12 15 50 0 53 -5 58 -35 37z"/>
<path d="M805 670 c-16 -26 14 -30 206 -30 192 0 199 1 199 20 0 19 -7 20
-199 20 -123 0 -202 -4 -206 -10z"/>
<path d="M1800 660 c0 -19 7 -20 200 -20 193 0 200 1 200 20 0 19 -7 20 -200
20 -193 0 -200 -1 -200 -20z"/>
<path d="M380 567 c-28 -14 -38 -51 -20 -72 7 -8 27 -17 46 -21 19 -3 34 -12
34 -20 0 -19 -35 -18 -65 2 -24 16 -25 16 -25 -10 0 -25 2 -26 54 -26 59 0 80
14 74 52 -2 17 -14 27 -45 38 -24 8 -43 20 -43 27 0 18 57 16 64 -2 9 -24 26
-17 26 10 0 20 -5 25 -24 25 -13 0 -30 2 -38 5 -7 3 -24 -1 -38 -8z"/>
<path d="M500 560 c0 -5 5 -10 10 -10 6 0 10 -25 10 -55 0 -30 -4 -55 -10 -55
-5 0 -10 -4 -10 -10 0 -5 20 -10 45 -10 25 0 45 5 45 10 0 6 -4 10 -10 10 -5
0 -10 9 -10 20 0 15 7 20 25 20 18 0 25 -5 25 -20 0 -11 -4 -20 -10 -20 -5 0
-10 -4 -10 -10 0 -5 20 -10 45 -10 44 0 60 12 30 24 -10 4 -15 20 -15 51 0 31
5 47 15 51 30 12 14 24 -30 24 -25 0 -45 -4 -45 -10 0 -5 5 -10 10 -10 6 0 10
-11 10 -25 0 -20 -5 -25 -25 -25 -20 0 -25 5 -25 25 0 14 5 25 10 25 6 0 10 5
10 10 0 6 -20 10 -45 10 -25 0 -45 -4 -45 -10z"/>
<path d="M700 560 c0 -5 5 -10 10 -10 6 0 10 -25 10 -55 0 -30 -4 -55 -10 -55
-5 0 -10 -4 -10 -10 0 -5 20 -10 45 -10 25 0 45 5 45 10 0 6 -4 10 -10 10 -5
0 -10 25 -10 55 0 30 5 55 10 55 6 0 10 5 10 10 0 6 -20 10 -45 10 -25 0 -45
-4 -45 -10z"/>
<path d="M800 562 c0 -4 4 -12 9 -17 5 -6 18 -35 29 -65 16 -45 24 -55 42 -55
19 0 27 11 44 57 12 31 25 60 29 64 15 15 6 24 -23 24 -29 0 -40 -13 -21 -24
9 -6 -9 -86 -19 -86 -11 0 -29 85 -19 88 24 9 5 22 -31 22 -22 0 -40 -4 -40
-8z"/>
<path d="M990 510 c-12 -33 -27 -63 -31 -66 -20 -12 -7 -24 26 -24 37 0 47 13
18 24 -23 9 -2 29 28 24 26 -3 39 -28 15 -28 -9 0 -16 -4 -16 -10 0 -5 20 -10
45 -10 41 0 58 11 36 24 -4 3 -19 33 -31 66 -18 49 -27 60 -45 60 -18 0 -27
-11 -45 -60z m54 -21 c-7 -12 -34 -11 -34 0 0 5 3 17 7 27 6 16 7 16 19 -1 7
-10 11 -22 8 -26z"/>
<path d="M1130 560 c0 -5 5 -10 10 -10 6 0 10 -22 10 -49 0 -28 -4 -53 -10
-56 -20 -12 -9 -25 20 -25 29 0 40 13 20 25 -5 3 -10 23 -10 43 0 43 11 33 30
-25 10 -33 18 -43 35 -43 17 0 24 10 35 50 7 28 18 50 22 50 11 0 -2 -74 -13
-78 -24 -10 -4 -22 36 -22 42 0 58 11 35 25 -5 3 -10 28 -10 56 0 27 5 49 10
49 6 0 10 5 10 10 0 6 -23 10 -51 10 -43 0 -50 -3 -45 -16 7 -19 -12 -99 -22
-90 -13 14 -31 81 -22 84 27 10 4 22 -40 22 -27 0 -50 -4 -50 -10z"/>
<path d="M1420 546 c0 -32 20 -44 27 -17 3 12 12 21 19 21 17 0 20 -95 4 -105
-23 -14 -7 -25 35 -25 40 0 60 12 36 22 -4 2 -10 27 -13 56 -4 41 -2 52 9 52
8 0 17 -9 20 -20 7 -26 23 -15 23 16 0 23 -2 24 -80 24 -78 0 -80 -1 -80 -24z"/>
<path d="M1590 561 c0 -5 6 -11 13 -14 16 -6 14 -100 -2 -105 -27 -9 -7 -22
34 -22 25 0 45 5 45 10 0 6 -4 10 -10 10 -5 0 -10 12 -10 26 0 35 24 26 30
-12 9 -50 80 -45 80 6 -1 11 -4 10 -15 -4 -13 -17 -15 -17 -15 -3 0 9 -7 20
-17 25 -14 9 -14 10 5 16 27 9 31 60 6 70 -25 9 -144 7 -144 -3z m113 -25 c6
-16 -11 -36 -30 -36 -7 0 -13 11 -13 25 0 18 5 25 19 25 10 0 21 -6 24 -14z"/>
<path d="M1780 560 c0 -5 5 -10 10 -10 6 0 10 -25 10 -55 0 -30 -4 -55 -10
-55 -5 0 -10 -4 -10 -10 0 -5 20 -10 45 -10 25 0 45 5 45 10 0 6 -4 10 -10 10
-5 0 -10 25 -10 55 0 30 5 55 10 55 6 0 10 5 10 10 0 6 -20 10 -45 10 -25 0
-45 -4 -45 -10z"/>
<path d="M1880 560 c0 -5 5 -10 10 -10 6 0 10 -25 10 -55 0 -30 -4 -55 -10
-55 -5 0 -10 -4 -10 -10 0 -5 20 -10 45 -10 25 0 45 5 45 10 0 6 -4 10 -10 10
-5 0 -10 8 -10 18 0 14 8 19 29 19 54 0 79 43 45 77 -18 18 -144 23 -144 6z
m108 -36 c2 -15 -4 -23 -17 -27 -18 -4 -21 0 -21 25 0 23 4 29 18 26 9 -2 18
-13 20 -24z"/>
<path d="M2090 560 c0 -7 -35 -89 -58 -132 -2 -5 12 -8 32 -8 37 0 48 13 20
24 -24 9 -6 26 27 26 19 0 29 -5 29 -15 0 -8 -4 -15 -10 -15 -5 0 -10 -4 -10
-10 0 -5 18 -10 41 -10 22 0 39 4 37 8 -51 124 -62 142 -85 142 -12 0 -23 -4
-23 -10z m30 -39 c0 -5 3 -16 6 -25 4 -12 0 -16 -15 -16 -22 0 -25 8 -15 34 7
17 24 22 24 7z"/>
<path d="M2200 546 c0 -32 20 -44 27 -17 3 12 12 21 19 21 10 0 14 -15 14 -55
0 -30 -4 -55 -10 -55 -5 0 -10 -4 -10 -10 0 -5 20 -10 45 -10 25 0 45 5 45 10
0 6 -4 10 -10 10 -5 0 -10 25 -10 55 0 40 4 55 14 55 7 0 16 -10 19 -22 7 -27
22 -15 22 18 1 23 -1 24 -82 24 -81 0 -83 0 -83 -24z"/>
<path d="M2380 560 c0 -5 5 -10 10 -10 17 0 12 -100 -5 -106 -30 -12 -14 -24
30 -24 42 0 58 11 35 25 -20 12 -10 35 15 35 18 0 25 -5 25 -20 0 -11 -4 -20
-10 -20 -5 0 -10 -4 -10 -10 0 -5 20 -10 45 -10 25 0 45 5 45 10 0 6 -4 10
-10 10 -5 0 -10 25 -10 55 0 30 5 55 10 55 6 0 10 5 10 10 0 6 -20 10 -45 10
-25 0 -45 -4 -45 -10 0 -5 5 -10 10 -10 6 0 10 -11 10 -25 0 -20 -5 -25 -25
-25 -18 0 -25 5 -25 19 0 11 5 23 10 26 22 13 8 25 -30 25 -22 0 -40 -4 -40
-10z"/>
<path d="M2570 561 c0 -5 5 -11 11 -13 16 -5 18 -99 2 -105 -28 -11 -11 -23
32 -23 42 0 58 11 35 25 -5 3 -10 28 -10 56 0 27 5 49 10 49 6 0 10 5 10 10 0
6 -20 10 -45 10 -25 0 -45 -4 -45 -9z"/>
<path d="M235 298 c0 -24 6 -43 13 -46 7 -2 12 5 12 17 0 14 6 21 20 21 27 0
25 18 -2 23 l-23 4 23 2 c35 2 26 21 -10 21 -32 0 -33 -1 -33 -42z"/>
<path d="M362 304 c4 -43 29 -65 56 -48 19 12 30 84 13 84 -6 0 -11 -13 -11
-29 0 -17 -5 -33 -11 -37 -16 -9 -29 17 -22 43 4 17 1 23 -12 23 -13 0 -16 -8
-13 -36z"/>
<path d="M502 298 c3 -39 6 -43 31 -46 19 -2 27 1 27 12 0 9 -7 16 -15 16 -10
0 -15 10 -15 30 0 20 -5 30 -16 30 -12 0 -14 -9 -12 -42z"/>
<path d="M622 298 c3 -39 6 -43 31 -46 19 -2 27 1 27 12 0 9 -8 16 -18 16 -15
0 -18 6 -14 30 3 23 0 30 -12 30 -14 0 -17 -8 -14 -42z"/>
<path d="M824 328 c-4 -6 2 -19 14 -29 28 -22 27 -27 0 -32 -21 -3 -22 -4 -4
-12 41 -18 74 33 34 53 -17 8 -19 11 -6 11 31 2 30 21 -1 21 -16 0 -33 -5 -37
-12z"/>
<path d="M950 330 c0 -5 5 -10 10 -10 6 0 10 -16 10 -35 0 -24 5 -35 15 -35
10 0 15 11 15 35 0 19 5 35 10 35 6 0 10 5 10 10 0 6 -16 10 -35 10 -19 0 -35
-4 -35 -10z"/>
<path d="M1085 304 c-18 -43 -19 -54 -5 -54 6 0 10 5 10 10 0 14 38 12 43 -2
2 -7 7 -10 11 -6 11 10 -16 88 -30 88 -8 0 -21 -16 -29 -36z"/>
<path d="M1222 328 c-27 -27 -1 -78 39 -78 25 0 25 16 -1 23 -12 3 -20 14 -20
26 0 14 6 21 20 21 11 0 20 5 20 10 0 14 -43 13 -58 -2z"/>
<path d="M1340 295 c0 -47 14 -61 23 -23 l6 21 20 -24 c24 -30 39 -19 17 12
-14 21 -14 24 1 41 21 24 -3 25 -29 1 -17 -15 -18 -15 -18 0 0 10 -4 17 -10
17 -5 0 -10 -20 -10 -45z"/>
<path d="M1562 298 c3 -38 6 -43 29 -46 32 -4 51 18 47 55 -3 25 -8 28 -41 31
l-38 3 3 -43z m56 0 c-5 -32 -28 -35 -28 -4 0 17 5 26 16 26 10 0 14 -7 12
-22z"/>
<path d="M1702 298 c3 -41 5 -43 37 -46 24 -3 32 0 29 10 -3 7 -12 12 -22 10
-9 -2 -16 2 -16 7 0 5 10 11 23 14 22 4 22 4 -3 15 -24 10 -24 11 -2 11 37 1
25 21 -14 21 l-35 0 3 -42z"/>
<path d="M1830 331 c0 -16 30 -81 38 -81 4 0 14 20 23 45 13 34 14 45 4 45 -7
0 -16 -10 -19 -22 l-7 -23 -11 23 c-11 22 -28 30 -28 13z"/>
<path d="M1970 295 c0 -43 1 -45 30 -45 21 0 30 5 30 16 0 11 -6 14 -20 9 -11
-4 -20 -2 -20 4 0 6 9 11 20 11 27 0 25 18 -2 23 l-23 4 23 2 c33 2 27 21 -8
21 -29 0 -30 -2 -30 -45z"/>
<path d="M2090 295 c0 -43 1 -45 30 -45 20 0 30 5 30 15 0 9 -9 15 -21 15 -18
0 -20 4 -14 30 5 23 3 30 -9 30 -12 0 -16 -11 -16 -45z"/>
<path d="M2216 325 c-12 -33 -6 -56 19 -67 34 -15 57 5 53 46 -3 27 -7 31 -34
34 -22 2 -33 -2 -38 -13z m54 -24 c0 -11 -4 -22 -8 -25 -14 -9 -35 12 -29 28
9 23 37 20 37 -3z"/>
<path d="M2355 298 c1 -42 25 -69 25 -28 0 12 4 19 9 16 4 -3 16 1 26 8 28 20
12 46 -28 46 -32 0 -33 -1 -32 -42z m47 17 c0 -5 -5 -11 -11 -13 -6 -2 -11 4
-11 13 0 9 5 15 11 13 6 -2 11 -8 11 -13z"/>
<path d="M2490 295 c0 -43 1 -45 30 -45 19 0 30 5 30 14 0 9 -7 12 -20 9 -11
-3 -20 0 -20 6 0 6 9 11 20 11 27 0 25 18 -2 23 l-23 4 23 2 c33 2 27 21 -8
21 -29 0 -30 -2 -30 -45z"/>
<path d="M2610 296 c0 -47 17 -63 27 -26 3 11 9 20 13 20 4 0 10 -9 13 -20 9
-36 25 -21 24 23 -2 41 -3 42 -39 45 l-38 3 0 -45z m55 25 c7 -12 -12 -24 -25
-16 -11 7 -4 25 10 25 5 0 11 -4 15 -9z"/>
</g>
</svg>
